<?xml version="1.0" standalone="no"?><!DOCTYPE svg PUBLIC "-//W3C//DTD SVG 1.1//EN" "http://www.w3.org/Graphics/SVG/1.1/DTD/svg11.dtd"><svg t="1617891183674" class="icon" viewBox="0 0 1024 1024" version="1.1" xmlns="http://www.w3.org/2000/svg" p-id="938" width="128" height="128" xmlns:xlink="http://www.w3.org/1999/xlink"><defs><style type="text/css"></style></defs><path d="M872.64 143.936C798.288 57.552 690.992 8 578.272 8c-258.928 0-370.912 193.088-414.624 308.176C138.4 382.64 58.624 596.32 58.624 596.32l3.488 1.296a30 30 0 0 0 28.56 39.184h85.024c0.32 151.168 5.648 214.4 94.688 214.4 34.624 0 72.704 1.872 97.712 3.376v131.424c0 16.56 13.424 30 30 30h369.12a29.984 29.984 0 0 0 29.968-28.912c0.08-1.968 1.776-49.664 0.032-132.848-0.592-27.424 22.928-68.88 50.16-116.864 25.552-45.04 57.344-101.088 81.456-166.96a30 30 0 1 0-56.32-20.624c-22.416 61.184-51.6 112.592-77.312 157.968-32.928 57.984-58.896 103.776-57.968 147.712 0.944 44.144 0.864 78.368 0.592 100.496H428.096v-129.472c0-15.664-12.048-28.688-27.664-29.904-2.832-0.24-70.08-5.424-130.048-5.424-27.36 0-34.72 0-34.72-184.4a30 30 0 0 0-30-30h-75.712a73768.96 73768.96 0 0 1 89.776-239.312c38.208-100.656 135.616-269.488 358.528-269.488 95.232 0 185.952 41.952 248.912 115.072 61.056 70.944 88.336 163.04 74.832 252.688a30 30 0 0 0 59.328 8.928c16.096-106.912-16.224-216.528-88.688-300.72z" p-id="939"></path><path d="M683.44 471.888c52.496 0 95.216-43.12 95.216-96.112s-42.72-96.112-95.216-96.112c-37.472 0-69.664 22.176-85.184 54.032l-65.52-22.128c-1.056-37.36-31.36-67.472-68.672-67.472-37.984 0-68.88 31.152-68.88 69.44s30.896 69.44 68.88 69.44c20.8 0 39.264-9.552 51.92-24.32l73.024 24.656c1.84 23.552 11.728 44.864 27.424 60.576l-42.528 53.072a67.552 67.552 0 0 0-22.08-3.984c-37.984 0-68.88 31.136-68.88 69.456 0 38.288 30.896 69.424 68.88 69.424 37.984 0 68.88-31.136 68.88-69.424a68.96 68.96 0 0 0-8.688-33.088l48.544-60.608c7.376 1.888 14.96 3.152 22.88 3.152z m-131.632 109.984c-10.4 0-18.88-8.704-18.88-19.424 0-10.736 8.464-19.456 18.88-19.456s18.88 8.72 18.88 19.456c0 10.72-8.464 19.424-18.88 19.424z m131.632-252.208c24.928 0 45.216 20.688 45.216 46.112 0 25.424-20.304 46.112-45.216 46.112s-45.2-20.672-45.2-46.112c0-25.424 20.272-46.112 45.2-46.112z m-238.256-16.112c0-10.72 8.464-19.44 18.88-19.44 9.904 0 17.84 8 18.592 18l-4.992 14.784a18.48 18.48 0 0 1-13.6 6.112c-10.416-0.016-18.88-8.736-18.88-19.456z" p-id="940"></path></svg>